<?xml version='1.0' encoding='utf-8'?>
<svg xmlns:xlink="http://www.w3.org/1999/xlink" xmlns="http://www.w3.org/2000/svg" id="chart-b61220df-0b39-4f3a-9631-2b4da16af727" class="pygal-chart" viewBox="0 0 800 600"><!--Generated with pygal 2.3.1 (lxml) ©Kozea 2012-2016 on 2017-06-18--><!--http://pygal.org--><!--http://github.com/Kozea/pygal--><defs><style type="text/css">#chart-b61220df-0b39-4f3a-9631-2b4da16af727{-webkit-user-select:none;-webkit-font-smoothing:antialiased;font-family:Consolas,"Liberation Mono",Menlo,Courier,monospace}#chart-b61220df-0b39-4f3a-9631-2b4da16af727 .title{font-family:Consolas,"Liberation Mono",Menlo,Courier,monospace;font-size:16px}#chart-b61220df-0b39-4f3a-9631-2b4da16af727 .legends .legend text{font-family:Consolas,"Liberation Mono",Menlo,Courier,monospace;font-size:14px}#chart-b61220df-0b39-4f3a-9631-2b4da16af727 .axis text{font-family:Consolas,"Liberation Mono",Menlo,Courier,monospace;font-size:10px}#chart-b61220df-0b39-4f3a-9631-2b4da16af727 .axis text.major{font-family:Consolas,"Liberation Mono",Menlo,Courier,monospace;font-size:10px}#chart-b61220df-0b39-4f3a-9631-2b4da16af727 .text-overlay text.value{font-family:Consolas,"Liberation Mono",Menlo,Courier,monospace;font-size:16px}#chart-b61220df-0b39-4f3a-9631-2b4da16af727 .text-overlay text.label{font-family:Consolas,"Liberation Mono",Menlo,Courier,monospace;font-size:10px}#chart-b61220df-0b39-4f3a-9631-2b4da16af727 .tooltip{font-family:Consolas,"Liberation Mono",Menlo,Courier,monospace;font-size:14px}#chart-b61220df-0b39-4f3a-9631-2b4da16af727 text.no_data{font-family:Consolas,"Liberation Mono",Menlo,Courier,monospace;font-size:64px}
#chart-b61220df-0b39-4f3a-9631-2b4da16af727{background-color:rgba(249,249,249,1)}#chart-b61220df-0b39-4f3a-9631-2b4da16af727 path,#chart-b61220df-0b39-4f3a-9631-2b4da16af727 line,#chart-b61220df-0b39-4f3a-9631-2b4da16af727 rect,#chart-b61220df-0b39-4f3a-9631-2b4da16af727 circle{-webkit-transition:400ms ease-in;-moz-transition:400ms ease-in;transition:400ms ease-in}#chart-b61220df-0b39-4f3a-9631-2b4da16af727 .graph &gt; .background{fill:rgba(249,249,249,1)}#chart-b61220df-0b39-4f3a-9631-2b4da16af727 .plot &gt; .background{fill:transparent}#chart-b61220df-0b39-4f3a-9631-2b4da16af727 .graph{fill:rgba(0,0,0,.87)}#chart-b61220df-0b39-4f3a-9631-2b4da16af727 text.no_data{fill:rgba(0,0,0,1)}#chart-b61220df-0b39-4f3a-9631-2b4da16af727 .title{fill:rgba(0,0,0,1)}#chart-b61220df-0b39-4f3a-9631-2b4da16af727 .legends .legend text{fill:rgba(0,0,0,.87)}#chart-b61220df-0b39-4f3a-9631-2b4da16af727 .legends .legend:hover text{fill:rgba(0,0,0,1)}#chart-b61220df-0b39-4f3a-9631-2b4da16af727 .axis .line{stroke:rgba(0,0,0,1)}#chart-b61220df-0b39-4f3a-9631-2b4da16af727 .axis .guide.line{stroke:#D1DAE3}#chart-b61220df-0b39-4f3a-9631-2b4da16af727 .axis .major.line{stroke:rgba(0,0,0,.87)}#chart-b61220df-0b39-4f3a-9631-2b4da16af727 .axis text.major{fill:rgba(0,0,0,1)}#chart-b61220df-0b39-4f3a-9631-2b4da16af727 .axis.y .guides:hover .guide.line,#chart-b61220df-0b39-4f3a-9631-2b4da16af727 .line-graph .axis.x .guides:hover .guide.line,#chart-b61220df-0b39-4f3a-9631-2b4da16af727 .stackedline-graph .axis.x .guides:hover .guide.line,#chart-b61220df-0b39-4f3a-9631-2b4da16af727 .xy-graph .axis.x .guides:hover .guide.line{stroke:rgba(0,0,0,1)}#chart-b61220df-0b39-4f3a-9631-2b4da16af727 .axis .guides:hover text{fill:rgba(0,0,0,1)}#chart-b61220df-0b39-4f3a-9631-2b4da16af727 .reactive{fill-opacity:.6;stroke-opacity:.8}#chart-b61220df-0b39-4f3a-9631-2b4da16af727 .ci{stroke:rgba(0,0,0,.87)}#chart-b61220df-0b39-4f3a-9631-2b4da16af727 .reactive.active,#chart-b61220df-0b39-4f3a-9631-2b4da16af727 .active .reactive{fill-opacity:.9;stroke-opacity:.9;stroke-width:4}#chart-b61220df-0b39-4f3a-9631-2b4da16af727 .ci .reactive.active{stroke-width:1.5}#chart-b61220df-0b39-4f3a-9631-2b4da16af727 .series text{fill:rgba(0,0,0,1)}#chart-b61220df-0b39-4f3a-9631-2b4da16af727 .tooltip rect{fill:transparent;stroke:rgba(0,0,0,1);-webkit-transition:opacity 400ms ease-in;-moz-transition:opacity 400ms ease-in;transition:opacity 400ms ease-in}#chart-b61220df-0b39-4f3a-9631-2b4da16af727 .tooltip .label{fill:rgba(0,0,0,.87)}#chart-b61220df-0b39-4f3a-9631-2b4da16af727 .tooltip .label{fill:rgba(0,0,0,.87)}#chart-b61220df-0b39-4f3a-9631-2b4da16af727 .tooltip .legend{font-size:.8em;fill:#D1DAE3}#chart-b61220df-0b39-4f3a-9631-2b4da16af727 .tooltip .x_label{font-size:.6em;fill:rgba(0,0,0,1)}#chart-b61220df-0b39-4f3a-9631-2b4da16af727 .tooltip .xlink{font-size:.5em;text-decoration:underline}#chart-b61220df-0b39-4f3a-9631-2b4da16af727 .tooltip .value{font-size:1.5em}#chart-b61220df-0b39-4f3a-9631-2b4da16af727 .bound{font-size:.5em}#chart-b61220df-0b39-4f3a-9631-2b4da16af727 .max-value{font-size:.75em;fill:#D1DAE3}#chart-b61220df-0b39-4f3a-9631-2b4da16af727 .map-element{fill:transparent;stroke:#D1DAE3 !important}#chart-b61220df-0b39-4f3a-9631-2b4da16af727 .map-element .reactive{fill-opacity:inherit;stroke-opacity:inherit}#chart-b61220df-0b39-4f3a-9631-2b4da16af727 .color-0,#chart-b61220df-0b39-4f3a-9631-2b4da16af727 .color-0 a:visited{stroke:rgb(80,0,211);fill:rgb(80,0,211)}#chart-b61220df-0b39-4f3a-9631-2b4da16af727 .color-1,#chart-b61220df-0b39-4f3a-9631-2b4da16af727 .color-1 a:visited{stroke:rgb(80,0,211);fill:rgb(80,0,211)}#chart-b61220df-0b39-4f3a-9631-2b4da16af727 .color-2,#chart-b61220df-0b39-4f3a-9631-2b4da16af727 .color-2 a:visited{stroke:rgb(40,255,0);fill:rgb(40,255,0)}#chart-b61220df-0b39-4f3a-9631-2b4da16af727 .color-3,#chart-b61220df-0b39-4f3a-9631-2b4da16af727 .color-3 a:visited{stroke:rgb(40,255,0);fill:rgb(40,255,0)}#chart-b61220df-0b39-4f3a-9631-2b4da16af727 .color-4,#chart-b61220df-0b39-4f3a-9631-2b4da16af727 .color-4 a:visited{stroke:rgb(255,141,0);fill:rgb(255,141,0)}#chart-b61220df-0b39-4f3a-9631-2b4da16af727 .color-5,#chart-b61220df-0b39-4f3a-9631-2b4da16af727 .color-5 a:visited{stroke:rgb(255,141,0);fill:rgb(255,141,0)}#chart-b61220df-0b39-4f3a-9631-2b4da16af727 .color-6,#chart-b61220df-0b39-4f3a-9631-2b4da16af727 .color-6 a:visited{stroke:rgb(163,0,0);fill:rgb(163,0,0)}#chart-b61220df-0b39-4f3a-9631-2b4da16af727 .color-7,#chart-b61220df-0b39-4f3a-9631-2b4da16af727 .color-7 a:visited{stroke:rgb(163,0,0);fill:rgb(163,0,0)}#chart-b61220df-0b39-4f3a-9631-2b4da16af727 .color-8,#chart-b61220df-0b39-4f3a-9631-2b4da16af727 .color-8 a:visited{stroke:rgb(0,0,0);fill:rgb(0,0,0)}#chart-b61220df-0b39-4f3a-9631-2b4da16af727 .color-9,#chart-b61220df-0b39-4f3a-9631-2b4da16af727 .color-9 a:visited{stroke:rgb(0,0,0);fill:rgb(0,0,0)}#chart-b61220df-0b39-4f3a-9631-2b4da16af727 .color-10,#chart-b61220df-0b39-4f3a-9631-2b4da16af727 .color-10 a:visited{stroke:rgb(130,130,130);fill:rgb(130,130,130)}#chart-b61220df-0b39-4f3a-9631-2b4da16af727 .color-11,#chart-b61220df-0b39-4f3a-9631-2b4da16af727 .color-11 a:visited{stroke:rgb(130,130,130);fill:rgb(130,130,130)}#chart-b61220df-0b39-4f3a-9631-2b4da16af727 .color-12,#chart-b61220df-0b39-4f3a-9631-2b4da16af727 .color-12 a:visited{stroke:rgb(130,130,130);fill:rgb(130,130,130)}#chart-b61220df-0b39-4f3a-9631-2b4da16af727 .color-13,#chart-b61220df-0b39-4f3a-9631-2b4da16af727 .color-13 a:visited{stroke:rgb(130,130,130);fill:rgb(130,130,130)}#chart-b61220df-0b39-4f3a-9631-2b4da16af727 .color-14,#chart-b61220df-0b39-4f3a-9631-2b4da16af727 .color-14 a:visited{stroke:rgb(130,130,130);fill:rgb(130,130,130)}#chart-b61220df-0b39-4f3a-9631-2b4da16af727 .text-overlay .color-0 text{fill:black}#chart-b61220df-0b39-4f3a-9631-2b4da16af727 .text-overlay .color-1 text{fill:black}#chart-b61220df-0b39-4f3a-9631-2b4da16af727 .text-overlay .color-2 text{fill:black}#chart-b61220df-0b39-4f3a-9631-2b4da16af727 .text-overlay .color-3 text{fill:black}#chart-b61220df-0b39-4f3a-9631-2b4da16af727 .text-overlay .color-4 text{fill:black}#chart-b61220df-0b39-4f3a-9631-2b4da16af727 .text-overlay .color-5 text{fill:black}#chart-b61220df-0b39-4f3a-9631-2b4da16af727 .text-overlay .color-6 text{fill:black}#chart-b61220df-0b39-4f3a-9631-2b4da16af727 .text-overlay .color-7 text{fill:black}#chart-b61220df-0b39-4f3a-9631-2b4da16af727 .text-overlay .color-8 text{fill:white}#chart-b61220df-0b39-4f3a-9631-2b4da16af727 .text-overlay .color-9 text{fill:white}#chart-b61220df-0b39-4f3a-9631-2b4da16af727 .text-overlay .color-10 text{fill:black}#chart-b61220df-0b39-4f3a-9631-2b4da16af727 .text-overlay .color-11 text{fill:black}#chart-b61220df-0b39-4f3a-9631-2b4da16af727 .text-overlay .color-12 text{fill:black}#chart-b61220df-0b39-4f3a-9631-2b4da16af727 .text-overlay .color-13 text{fill:black}#chart-b61220df-0b39-4f3a-9631-2b4da16af727 .text-overlay .color-14 text{fill:black}#chart-b61220df-0b39-4f3a-9631-2b4da16af727 .series.serie-1{stroke-width:0.5;stroke-dasharray:3}#chart-b61220df-0b39-4f3a-9631-2b4da16af727 .series.serie-3{stroke-width:0.5;stroke-dasharray:3}#chart-b61220df-0b39-4f3a-9631-2b4da16af727 .series.serie-5{stroke-width:0.5;stroke-dasharray:3}#chart-b61220df-0b39-4f3a-9631-2b4da16af727 .series.serie-7{stroke-width:0.5;stroke-dasharray:3}#chart-b61220df-0b39-4f3a-9631-2b4da16af727 .series.serie-9{stroke-width:0.5;stroke-dasharray:3}#chart-b61220df-0b39-4f3a-9631-2b4da16af727 .series.serie-10{stroke-width:0.7;stroke-dasharray:6}#chart-b61220df-0b39-4f3a-9631-2b4da16af727 .series.serie-11{stroke-width:0.7;stroke-dasharray:6}#chart-b61220df-0b39-4f3a-9631-2b4da16af727 .series.serie-12{stroke-width:0.7;stroke-dasharray:6}#chart-b61220df-0b39-4f3a-9631-2b4da16af727 .series.serie-13{stroke-width:0.7;stroke-dasharray:6}#chart-b61220df-0b39-4f3a-9631-2b4da16af727 .series.serie-14{stroke-width:0.7;stroke-dasharray:6}
#chart-b61220df-0b39-4f3a-9631-2b4da16af727 text.no_data{text-anchor:middle}#chart-b61220df-0b39-4f3a-9631-2b4da16af727 .guide.line{fill:none}#chart-b61220df-0b39-4f3a-9631-2b4da16af727 .centered{text-anchor:middle}#chart-b61220df-0b39-4f3a-9631-2b4da16af727 .title{text-anchor:middle}#chart-b61220df-0b39-4f3a-9631-2b4da16af727 .legends .legend text{fill-opacity:1}#chart-b61220df-0b39-4f3a-9631-2b4da16af727 .axis.x text{text-anchor:middle}#chart-b61220df-0b39-4f3a-9631-2b4da16af727 .axis.x:not(.web) text[transform]{text-anchor:start}#chart-b61220df-0b39-4f3a-9631-2b4da16af727 .axis.x:not(.web) text[transform].backwards{text-anchor:end}#chart-b61220df-0b39-4f3a-9631-2b4da16af727 .axis.y text{text-anchor:end}#chart-b61220df-0b39-4f3a-9631-2b4da16af727 .axis.y text[transform].backwards{text-anchor:start}#chart-b61220df-0b39-4f3a-9631-2b4da16af727 .axis.y2 text{text-anchor:start}#chart-b61220df-0b39-4f3a-9631-2b4da16af727 .axis.y2 text[transform].backwards{text-anchor:end}#chart-b61220df-0b39-4f3a-9631-2b4da16af727 .axis .guide.line{stroke-dasharray:4,4}#chart-b61220df-0b39-4f3a-9631-2b4da16af727 .axis .major.guide.line{stroke-dasharray:6,6}#chart-b61220df-0b39-4f3a-9631-2b4da16af727 .horizontal .axis.y .guide.line,#chart-b61220df-0b39-4f3a-9631-2b4da16af727 .horizontal .axis.y2 .guide.line,#chart-b61220df-0b39-4f3a-9631-2b4da16af727 .vertical .axis.x .guide.line{opacity:0}#chart-b61220df-0b39-4f3a-9631-2b4da16af727 .horizontal .axis.always_show .guide.line,#chart-b61220df-0b39-4f3a-9631-2b4da16af727 .vertical .axis.always_show .guide.line{opacity:1 !important}#chart-b61220df-0b39-4f3a-9631-2b4da16af727 .axis.y .guides:hover .guide.line,#chart-b61220df-0b39-4f3a-9631-2b4da16af727 .axis.y2 .guides:hover .guide.line,#chart-b61220df-0b39-4f3a-9631-2b4da16af727 .axis.x .guides:hover .guide.line{opacity:1}#chart-b61220df-0b39-4f3a-9631-2b4da16af727 .axis .guides:hover text{opacity:1}#chart-b61220df-0b39-4f3a-9631-2b4da16af727 .nofill{fill:none}#chart-b61220df-0b39-4f3a-9631-2b4da16af727 .subtle-fill{fill-opacity:.2}#chart-b61220df-0b39-4f3a-9631-2b4da16af727 .dot{stroke-width:1px;fill-opacity:1}#chart-b61220df-0b39-4f3a-9631-2b4da16af727 .dot.active{stroke-width:5px}#chart-b61220df-0b39-4f3a-9631-2b4da16af727 .dot.negative{fill:transparent}#chart-b61220df-0b39-4f3a-9631-2b4da16af727 text,#chart-b61220df-0b39-4f3a-9631-2b4da16af727 tspan{stroke:none !important}#chart-b61220df-0b39-4f3a-9631-2b4da16af727 .series text.active{opacity:1}#chart-b61220df-0b39-4f3a-9631-2b4da16af727 .tooltip rect{fill-opacity:.95;stroke-width:.5}#chart-b61220df-0b39-4f3a-9631-2b4da16af727 .tooltip text{fill-opacity:1}#chart-b61220df-0b39-4f3a-9631-2b4da16af727 .showable{visibility:hidden}#chart-b61220df-0b39-4f3a-9631-2b4da16af727 .showable.shown{visibility:visible}#chart-b61220df-0b39-4f3a-9631-2b4da16af727 .gauge-background{fill:rgba(229,229,229,1);stroke:none}#chart-b61220df-0b39-4f3a-9631-2b4da16af727 .bg-lines{stroke:rgba(249,249,249,1);stroke-width:2px}</style><script type="text/javascript">window.pygal = window.pygal || {};window.pygal.config = window.pygal.config || {};window.pygal.config['b61220df-0b39-4f3a-9631-2b4da16af727'] = {"x_labels_major_every": null, "allow_interruptions": false, "xrange": null, "interpolation_parameters": {}, "margin": 20, "x_labels_major_count": null, "y_labels_major_every": null, "no_prefix": false, "x_title": null, "classes": ["pygal-chart"], "include_x_axis": false, "show_only_major_dots": false, "show_y_labels": true, "box_mode": "extremes", "y_labels_major_count": null, "half_pie": false, "tooltip_border_radius": 0, "range": null, "margin_left": null, "interpolate": null, "min_scale": 4, "margin_right": null, "zero": 0, "x_labels_major": null, "order_min": null, "tooltip_fancy_mode": true, "js": ["//kozea.github.io/pygal.js/2.0.x/pygal-tooltips.min.js"], "width": 800, "disable_xml_declaration": false, "x_label_rotation": 0, "spacing": 10, "missing_value_fill_truncation": "x", "secondary_range": null, "dynamic_print_values": false, "print_zeroes": true, "title": null, "show_minor_x_labels": true, "style": {"plot_background": "transparent", "value_colors": [], "value_font_family": "Consolas, \"Liberation Mono\", Menlo, Courier, monospace", "no_data_font_size": 64, "label_font_family": "Consolas, \"Liberation Mono\", Menlo, Courier, monospace", "guide_stroke_dasharray": "4,4", "transition": "400ms ease-in", "background": "rgba(249, 249, 249, 1)", "value_background": "rgba(229, 229, 229, 1)", "major_guide_stroke_dasharray": "6,6", "tooltip_font_size": 14, "label_font_size": 10, "ci_colors": [], "title_font_size": 16, "major_label_font_size": 10, "value_label_font_family": "Consolas, \"Liberation Mono\", Menlo, Courier, monospace", "opacity_hover": ".9", "tooltip_font_family": "Consolas, \"Liberation Mono\", Menlo, Courier, monospace", "font_family": "Consolas, \"Liberation Mono\", Menlo, Courier, monospace", "foreground": "rgba(0, 0, 0, .87)", "opacity": ".6", "value_font_size": 16, "no_data_font_family": "Consolas, \"Liberation Mono\", Menlo, Courier, monospace", "foreground_subtle": "#D1DAE3", "stroke_opacity": ".8", "value_label_font_size": 10, "legend_font_family": "Consolas, \"Liberation Mono\", Menlo, Courier, monospace", "stroke_opacity_hover": ".9", "colors": ["rgb(80, 0, 211)", "rgb(80, 0, 211)", "rgb(40, 255, 0)", "rgb(40, 255, 0)", "rgb(255, 141, 0)", "rgb(255, 141, 0)", "rgb(163, 0, 0)", "rgb(163, 0, 0)", "rgb(0, 0, 0)", "rgb(0, 0, 0)", "rgb(130,130,130)", "rgb(130,130,130)", "rgb(130,130,130)", "rgb(130,130,130)", "rgb(130,130,130)"], "legend_font_size": 14, "foreground_strong": "rgba(0, 0, 0, 1)", "title_font_family": "Consolas, \"Liberation Mono\", Menlo, Courier, monospace", "major_label_font_family": "Consolas, \"Liberation Mono\", Menlo, Courier, monospace"}, "defs": [], "rounded_bars": null, "show_y_guides": true, "print_values": false, "show_legend": true, "y_labels": null, "show_minor_y_labels": true, "inner_radius": 0, "show_x_guides": false, "max_scale": 6, "no_data_text": "No data", "fill": false, "legend_box_size": 12, "show_dots": true, "logarithmic": false, "pretty_print": false, "css": ["file://style.css", "file://graph.css"], "stack_from_top": false, "formatter": null, "stroke_style": null, "margin_bottom": null, "inverse_y_axis": false, "y_title": null, "strict": false, "truncate_label": null, "margin_top": null, "stroke": true, "explicit_size": false, "interpolation_precision": 250, "force_uri_protocol": "https", "y_labels_major": null, "truncate_legend": null, "legends": ["Alexa Fluor 405", null, "FITC", null, "eFluor 615", null, "eFluor 710", null, "Alexa Fluor 750", null, "Laser: 355", "Laser: 405", "Laser: 488", "Laser: 561", "Laser: 640"], "legend_at_bottom": false, "print_values_position": "center", "x_labels": null, "print_labels": false, "show_x_labels": true, "y_label_rotation": 0, "legend_at_bottom_columns": null, "dots_size": 2.5, "height": 600}</script><script type="text/javascript" xlink:href="https://kozea.github.io/pygal.js/2.0.x/pygal-tooltips.min.js"/></defs><title>Pygal</title><g class="graph xy-graph vertical"><rect class="background" height="600" width="800" x="0" y="0"/><g class="plot" transform="translate(196, 20)"><rect class="background" height="540" width="584.0" x="0" y="0"/><g class="axis y"><g class="guides"><path class="axis major line" d="M0.000000 529.615385 h584.000000"/><text class="major" x="-5" y="533.115384615">0</text><title>0</title></g><g class="guides"><path class="guide line" d="M0.000000 425.769231 h584.000000"/><text class="" x="-5" y="429.269230769">20</text><title>20</title></g><g class="guides"><path class="guide line" d="M0.000000 321.923077 h584.000000"/><text class="" x="-5" y="325.423076923">40</text><title>40</title></g><g class="guides"><path class="guide line" d="M0.000000 218.076923 h584.000000"/><text class="" x="-5" y="221.576923077">60</text><title>60</title></g><g class="guides"><path class="guide line" d="M0.000000 114.230769 h584.000000"/><text class="" x="-5" y="117.730769231">80</text><title>80</title></g><g class="guides"><path class="major guide line" d="M0.000000 10.384615 h584.000000"/><text class="major" x="-5" y="13.8846153846">100</text><title>100</title></g></g><g class="axis x"><path class="line" d="M0.000000 0.000000 v540.000000"/><g class="guides"><path class="guide line" d="M11.230769 0.000000 v540.000000"/><text class="" x="11.2307692308" y="555.0">300</text><title>300</title></g><g class="guides"><path class="guide line" d="M109.746289 0.000000 v540.000000"/><text class="" x="109.746288799" y="555.0">400</text><title>400</title></g><g class="guides"><path class="guide line" d="M208.261808 0.000000 v540.000000"/><text class="" x="208.261808367" y="555.0">500</text><title>500</title></g><g class="guides"><path class="guide line" d="M306.777328 0.000000 v540.000000"/><text class="" x="306.777327935" y="555.0">600</text><title>600</title></g><g class="guides"><path class="guide line" d="M405.292848 0.000000 v540.000000"/><text class="" x="405.292847503" y="555.0">700</text><title>700</title></g><g class="guides"><path class="guide line" d="M503.808367 0.000000 v540.000000"/><text class="" x="503.808367072" y="555.0">800</text><title>800</title></g></g><g class="series serie-0 color-0"><path class="line reactive" d="M100.879892 529.615385 L100.879892 529.551123 101.865047 528.911701 102.850202 527.831539 103.835358 525.933499 104.820513 523.730791 105.805668 520.277043 106.790823 516.148385 107.775978 509.649967 108.761134 501.860831 109.746289 491.335449 110.731444 478.209126 111.716599 463.093662 112.701754 444.067406 113.686910 422.173482 114.672065 400.363876 115.657220 372.814332 116.642375 346.139950 117.627530 317.217789 118.612686 287.125200 119.597841 259.844335 120.582996 229.815464 121.568151 202.777854 122.553306 179.358497 123.538462 157.055455 124.523617 139.060796 125.508772 121.154475 126.493927 109.638408 127.479082 99.329766 128.464238 91.553266 129.449393 85.929192 130.434548 84.083023 131.419703 82.785115 132.404858 85.774321 133.390013 87.791759 134.375169 89.472735 135.360324 92.727134 136.345479 96.955980 137.330634 99.178290 138.315789 103.284482 139.300945 106.584770 140.286100 110.379878 141.271255 110.875994 142.256410 113.118233 143.241565 116.711821 144.226721 119.422070 145.211876 123.369994 146.197031 127.210947 147.182186 131.138272 148.167341 135.247189 149.152497 140.906920 150.137652 146.976394 151.122807 150.816052 152.107962 160.076832 153.093117 166.587641 154.078273 174.673303 155.063428 183.481132 156.048583 192.000487 157.033738 200.937897 158.018893 210.482415 159.004049 218.548863 159.989204 228.892402 160.974359 239.309982 161.959514 248.028087 162.944669 259.000049 163.929825 267.568779 164.914980 276.680230 165.900135 285.015223 166.885290 292.414196 167.870445 300.895168 168.855601 309.216488 169.840756 315.943876 170.825911 324.501614 171.811066 332.448758 172.796221 338.917788 173.781377 345.247005 174.766532 351.443289 175.751687 357.102305 176.736842 362.653054 177.721997 369.434553 178.707152 375.171675 179.692308 380.042661 180.677463 385.187688 181.662618 390.983121 182.647773 396.665417 183.632928 401.698781 184.618084 406.956231 185.603239 411.642855 186.588394 417.231272 187.573549 420.794743 188.558704 425.659518 189.543860 429.648506 190.529015 434.101438 191.514170 437.941050 192.499325 442.444027 193.484480 445.627112 194.469636 449.915565 195.454791 453.128856 196.439946 456.834821 197.425101 459.981624 198.410256 463.346390 199.395412 466.401234 200.380567 469.289813 201.365722 472.095326 202.350877 474.586539 203.336032 476.851968 204.321188 479.152519 205.306343 480.957132 206.291498 483.789500 207.276653 485.974522 208.261808 487.980263 209.246964 490.033564 210.232119 491.836940 211.217274 494.447979 212.202429 496.220586 213.187584 498.205768 214.172740 499.539865 215.157895 501.189120 216.143050 503.032174 217.128205 504.286578 218.113360 505.810909 219.098516 506.478848 220.083671 507.612846 221.068826 509.330765 222.053981 509.922502 223.039136 511.322591 224.024291 511.813184 225.009447 512.772707 225.994602 514.200688 226.979757 514.710945 227.964912 515.570763 228.950067 516.437913 229.935223 517.190827 230.920378 518.428439 231.905533 518.600514 232.890688 519.739578 233.875843 520.041992 234.860999 520.714731 235.846154 521.638620 236.831309 521.957138 237.816464 522.650775 238.801619 523.104125 239.786775 523.436678 240.771930 524.409897 241.757085 524.245338 242.742240 525.109092 243.727395 525.335732 244.712551 525.957813 245.697706 526.720061 246.682861 526.433444 247.668016 526.943639 248.653171 527.058272 249.638327 527.174372 250.623482 528.385723 251.608637 527.963126 252.593792 528.782882 253.578947 528.496505 254.564103 528.910529 255.549258 529.331149 255.549258 529.615385"/></g><g class="series serie-1 color-1"><path class="line reactive nofill" d="M11.230769 355.154158 L12.215924 383.154767 13.201080 405.205615 14.186235 424.695825 15.171390 439.633887 16.156545 450.752279 17.141700 459.336254 18.126856 466.674906 19.112011 472.076827 20.097166 476.046242 21.082321 479.713704 22.067476 482.372882 23.052632 484.843637 24.037787 486.178833 25.022942 487.675012 26.008097 489.921153 26.993252 490.095853 27.978408 490.495162 28.963563 491.418578 29.948718 491.457261 30.933873 490.122054 31.919028 490.270548 32.904184 489.110047 33.889339 488.124241 34.874494 486.551947 35.859649 483.245128 36.844804 481.797621 37.829960 479.089776 38.815115 475.421088 39.800270 472.189137 40.785425 468.071221 41.770580 463.942090 42.755735 459.574581 43.740891 455.768619 44.726046 450.663646 45.711201 447.544056 46.696356 442.777206 47.681511 437.923073 48.666667 432.883004 49.651822 427.416127 50.636977 420.889863 51.622132 413.092056 52.607287 404.644067 53.592443 394.399177 54.577598 383.853548 55.562753 372.835004 56.547908 361.254912 57.533063 351.360710 58.518219 342.463535 59.503374 334.101635 60.488529 326.913975 61.473684 320.351521 62.458839 313.326121 63.443995 307.710796 64.429150 301.533871 65.414305 295.319613 66.399460 289.178879 67.384615 281.616906 68.369771 273.168917 69.354926 262.013088 70.340081 248.673531 71.325236 232.888188 72.310391 216.542544 73.295547 200.769715 74.280702 186.881071 75.265857 176.910698 76.251012 169.935196 77.236167 164.268675 78.221323 160.127083 79.206478 156.057819 80.191633 152.951937 81.176788 149.670087 82.161943 147.473844 83.147099 145.189021 84.132254 143.667883 85.117409 141.583950 86.102564 140.447198 87.087719 138.151108 88.072874 137.690654 89.058030 137.651971 90.043185 140.573215 91.028340 148.210062 92.013495 158.054365 92.998650 170.707604 93.983806 187.690915 94.968961 204.175090 95.954116 219.300335 96.939271 232.427735 97.924426 241.412296 98.909582 246.366277 99.894737 245.578863 100.879892 239.052600 101.865047 226.099869 102.850202 207.481863 103.835358 183.212394 104.820513 154.648990 105.805668 123.015894 106.790823 91.044623 107.775978 60.797873 108.761134 35.402815 109.746289 17.647096 110.731444 10.384615 111.716599 13.191058 112.701754 27.255565 113.686910 51.214379 114.672065 82.785115 115.657220 120.008562 116.642375 160.788479 117.627530 203.051994 118.612686 244.830185 119.597841 284.699112 120.582996 322.797306 121.568151 355.990223 122.553306 386.037329 123.538462 411.805506 124.523617 434.080921 125.508772 452.061260 126.493927 467.885285 127.479082 480.063105 128.464238 490.758464 129.449393 498.768435 130.434548 505.395787 131.419703 510.760314 132.404858 514.429001 133.390013 518.248686 134.375169 520.632085 135.360324 522.440223 136.345479 524.087389 137.330634 525.260374 138.315789 526.085206 139.300945 526.684176 140.286100 527.333060 141.271255 528.117960 142.256410 528.206558 143.241565 528.418693 144.226721 528.667015 145.211876 528.980227 146.197031 528.930313 147.182186 529.317346 148.167341 529.265942 149.152497 529.228550 150.137652 528.905356 151.122807 529.228550 152.107962 529.491808 153.093117 529.466885 154.078273 529.378096 155.063428 529.279962 156.048583 529.328250 158.018893 529.528154 159.004049 529.541654"/></g><g class="series serie-2 color-2"><path class="line reactive" d="M193.484480 529.615385 L193.484480 514.406086 194.469636 513.846869 195.454791 512.263669 196.439946 508.747772 197.425101 504.168525 198.410256 498.708358 199.395412 491.908459 200.380567 484.184988 201.365722 475.758368 202.350877 465.697454 203.336032 453.269514 204.321188 439.069647 205.306343 423.655091 206.291498 407.431558 207.276653 389.919581 208.261808 369.551475 209.246964 348.668609 210.232119 328.504463 211.217274 308.440851 212.202429 288.128513 213.187584 266.757386 214.172740 245.613387 215.157895 227.144562 216.143050 209.507720 217.128205 193.443822 218.113360 178.543945 219.098516 164.516601 220.083671 153.891865 221.068826 144.805946 222.053981 138.078662 223.039136 132.395230 224.024291 129.075331 225.009447 128.118323 225.994602 129.818984 226.979757 131.730472 227.964912 134.537257 228.950067 139.432470 229.935223 146.587469 230.920378 153.857778 231.905533 161.871579 232.890688 171.095171 233.875843 180.431182 234.860999 190.472423 235.846154 200.276098 236.831309 210.769223 237.816464 221.277526 238.801619 232.175521 239.786775 243.206010 240.771930 252.869161 241.757085 262.214568 242.742240 272.264400 243.727395 281.356542 244.712551 290.279855 245.697706 299.256887 246.682861 307.036776 247.668016 316.116873 248.653171 322.902896 249.638327 329.981811 250.623482 335.794124 251.608637 341.917717 252.593792 346.985694 253.578947 352.139069 254.564103 357.605170 255.549258 362.165695 256.534413 366.767775 257.519568 371.285018 258.504723 374.703324 259.489879 379.274127 260.475034 383.365423 261.460189 387.217265 262.445344 390.862858 263.430499 393.831929 264.415655 397.840034 265.400810 401.994565 266.385965 404.893815 267.371120 408.556111 268.356275 411.820081 269.341430 414.943488 270.326586 418.716275 271.311741 422.224075 272.296896 426.248561 273.282051 428.801801 274.267206 432.266761 275.252362 435.251089 276.237517 438.505784 277.222672 442.554601 278.207827 445.707277 279.192982 448.850557 280.178138 451.422668 281.163293 454.705829 282.148448 457.101482 283.133603 460.058187 284.118758 462.554856 285.103914 465.424034 286.089069 467.825147 287.074224 469.503967 288.059379 471.562362 289.044534 473.862900 290.029690 475.786834 291.014845 477.926412 292.000000 480.047682 292.985155 481.886257 293.970310 483.822758 294.955466 485.706301 295.940621 487.083918 296.925776 488.342611 297.910931 490.077492 298.896086 491.721727 299.881242 493.038468 300.866397 494.365139 301.851552 495.738452 302.836707 496.353734 303.821862 497.815533 304.807018 498.762941 305.792173 500.284948 306.777328 501.170000 307.762483 501.657101 308.747638 502.695810 309.732794 503.650164 310.717949 504.390822 311.703104 505.325162 312.688259 506.138105 313.673414 507.083193 314.658570 507.460801 315.643725 508.207413 316.628880 509.033083 317.614035 509.783337 318.599190 510.255718 319.584345 510.983311 320.569501 511.728434 321.554656 512.389370 322.539811 513.100586 323.524966 513.425433 324.510121 514.066355 325.495277 514.647402 326.480432 515.171387 327.465587 515.774765 328.450742 516.382443 329.435897 516.651546 330.421053 517.224491 331.406208 517.639807 332.391363 517.890554 333.376518 518.428930 334.361673 518.473420 335.346829 518.949443 336.331984 519.197869 337.317139 519.517918 338.302294 519.747326 339.287449 520.240219 340.272605 520.473264 341.257760 520.916369 342.242915 521.174061 343.228070 521.356164 344.213225 521.559278 345.198381 522.097982 346.183536 522.231958 347.168691 522.390409 348.153846 522.666627 349.139001 522.775461 350.124157 523.069706 351.109312 523.579302 352.094467 523.754624 353.079622 523.845595 354.064777 523.961539 355.049933 524.185819 356.035088 524.490817 356.035088 529.615385"/></g><g class="series serie-3 color-3"><path class="line reactive nofill" d="M11.230769 251.096002 L12.215924 267.060583 13.201080 281.254898 14.186235 295.610798 15.171390 306.295944 16.156545 316.779992 17.141700 324.985085 18.126856 330.307927 19.112011 336.853090 20.097166 342.290267 21.082321 340.397723 22.067476 344.261735 23.052632 345.957127 24.037787 344.695448 25.022942 348.090231 26.008097 349.549062 26.993252 353.251437 27.978408 353.767967 28.963563 358.298308 29.948718 362.162267 30.933873 368.825712 31.919028 373.442815 32.904184 378.170256 33.889339 388.465096 34.874494 396.070840 35.859649 401.279348 36.844804 409.476548 37.829960 419.574237 38.815115 423.591992 39.800270 431.245090 40.785425 434.793617 41.770580 439.406775 42.755735 444.098804 43.740891 448.357067 44.726046 450.679379 45.711201 455.016565 46.696356 456.790829 47.681511 458.923933 48.666667 461.009683 49.651822 462.626256 50.636977 461.329062 51.622132 465.705606 52.607287 466.135425 53.592443 467.716483 54.577598 469.407981 55.562753 470.511969 56.547908 471.343933 57.533063 472.601665 58.518219 472.960506 59.503374 474.064494 60.488529 474.734769 61.473684 475.405044 62.458839 474.573133 63.443995 475.519379 64.429150 475.681067 65.414305 475.243408 66.399460 476.035910 67.384615 476.071425 68.369771 476.035910 69.354926 477.731343 70.340081 478.555394 71.325236 478.082255 72.310391 478.795912 73.295547 480.605680 74.280702 479.501687 75.265857 480.802827 76.251012 480.491341 77.236167 480.649057 78.221323 481.551968 79.206478 481.473113 80.191633 481.240482 81.176788 482.498256 82.161943 483.523399 83.147099 483.641680 84.132254 485.415964 85.117409 487.426825 86.102564 486.914251 87.087719 488.451963 88.072874 490.344539 89.058030 490.387910 90.043185 492.473681 91.028340 493.226768 92.013495 493.502770 92.998650 493.065111 93.983806 494.681679 94.968961 493.699912 95.954116 494.725055 96.939271 495.553052 97.924426 495.671338 98.909582 496.929107 99.894737 497.051334 100.879892 497.524477 101.865047 498.589051 102.850202 498.979393 103.835358 500.122822 104.820513 500.635392 105.805668 500.438250 106.790823 501.506765 107.775978 502.374192 108.761134 502.843394 109.746289 502.764534 110.731444 503.162763 111.716599 502.843394 112.701754 503.596476 113.686910 503.596476 114.672065 503.399335 115.657220 502.251965 116.642375 503.237678 117.627530 503.001106 118.612686 503.635907 119.597841 503.513675 120.582996 503.872479 121.568151 503.359904 122.553306 504.459962 123.538462 504.109045 124.523617 504.385048 125.508772 503.789677 126.493927 503.001106 127.479082 502.453047 128.464238 502.054818 129.449393 500.718193 130.434548 501.147961 131.419703 500.047908 132.404858 500.047908 133.390013 497.445622 134.375169 496.810821 135.360324 495.154823 136.345479 492.359341 137.330634 490.190769 138.315789 488.771337 139.300945 486.523914 140.286100 485.853624 141.271255 484.158200 142.256410 482.857055 143.241565 479.974825 144.226721 477.057133 145.211876 476.465677 146.197031 473.670190 147.182186 471.343933 148.167341 467.515385 149.152497 465.705606 150.137652 462.038746 151.122807 460.851992 152.107962 456.991927 153.093117 455.450279 154.078273 451.783419 155.063428 448.475348 156.048583 443.586219 157.033738 441.177144 158.018893 436.015938 159.004049 432.266262 159.989204 427.219390 160.974359 421.699396 161.959514 415.745688 162.944669 409.476548 163.929825 403.684477 164.914980 397.573079 165.900135 390.077723 166.885290 383.098846 167.870445 375.962279 168.855601 368.825712 169.840756 361.338196 170.825911 355.617156 171.811066 348.878787 172.796221 342.369138 173.781377 334.719987 174.766532 330.662821 175.751687 323.092540 176.736842 318.400512 177.721997 312.289113 178.707152 307.672010 179.692308 302.510804 180.677463 296.635967 181.662618 290.914875 182.647773 286.384535 183.632928 280.509698 184.618084 274.043406 185.603239 267.103990 186.588394 259.253740 187.573549 250.066887 188.558704 241.195465 189.543860 229.567967 190.529015 219.391460 191.514170 205.157735 192.499325 192.106921 193.484480 177.124050 194.469636 161.908615 195.454791 144.993738 196.439946 128.118323 197.425101 111.045704 198.410256 95.309792 199.395412 77.216002 200.380567 63.017792 201.365722 48.862938 202.350877 36.249785 203.336032 25.797202 204.321188 18.309790 205.306343 11.997242 206.291498 10.384615 207.276653 10.936610 208.261808 16.141171 209.246964 24.377781 210.232119 36.959469 211.217274 50.637202 212.202429 69.247523 213.187584 88.882910 214.172740 111.637160 215.157895 135.763477 216.143050 161.672002 217.128205 187.809196 218.113360 214.541740 219.098516 241.037723 220.083671 265.763388 221.068826 290.603388 222.053981 314.851933 223.039136 336.774219 224.024291 358.105102 225.009447 377.381700 225.994602 395.798763 226.979757 412.315442 227.964912 427.771385 228.950067 440.388537 229.935223 453.518273 230.920378 463.296531 231.905533 472.404565 232.890688 481.354827 233.875843 488.022196 234.860999 493.029627 235.846154 499.215965 236.831309 502.689619 237.816464 506.277618 238.801619 509.585673 239.786775 513.098763 240.771930 514.715331 241.757085 517.392531 242.742240 518.969674 243.727395 520.783389 244.712551 522.123959 245.697706 523.858813 246.682861 524.020471 247.668016 525.124472 248.653171 525.554242 249.638327 526.228471 250.623482 525.794757 251.608637 527.371900 252.593792 527.490186 253.578947 528.590242 254.564103 527.998814 255.549258 527.963328 256.534413 526.737099 257.519568 527.249671"/></g><g class="series serie-4 color-4"><path class="line reactive" d="M277.222672 529.615385 L277.222672 525.662026 278.207827 525.449161 279.192982 524.942854 280.178138 524.435655 281.163293 523.976744 282.148448 523.539580 283.133603 522.885280 284.118758 521.955242 285.103914 520.760341 286.089069 519.311822 287.074224 517.772918 288.059379 516.020582 289.044534 514.144913 290.029690 511.932218 291.014845 509.481996 292.000000 507.121157 292.985155 504.403152 293.970310 501.258093 294.955466 496.967710 295.940621 492.104038 296.925776 486.848563 297.910931 481.648655 298.896086 476.330813 299.881242 470.482945 300.866397 464.349914 301.851552 457.523366 302.836707 450.736178 303.821862 442.932137 304.807018 434.760162 305.792173 426.624465 306.777328 418.499982 307.762483 410.618375 308.747638 402.645366 309.732794 394.697684 310.717949 386.832366 311.703104 379.617010 312.688259 373.125182 313.673414 368.200569 314.658570 364.009423 315.643725 360.169908 316.628880 355.755137 317.614035 351.388660 318.599190 348.501888 319.584345 346.535827 320.569501 345.845657 321.554656 345.886087 322.539811 347.028128 323.524966 349.266695 324.510121 352.166679 325.495277 355.373288 326.480432 358.213745 327.465587 361.874461 328.450742 365.981743 329.435897 370.511883 330.421053 374.624939 331.406208 378.536242 332.391363 383.103360 333.376518 388.736008 334.361673 394.850833 335.346829 400.127626 336.331984 404.473652 337.317139 408.442383 338.302294 413.358229 339.287449 418.105915 340.272605 422.433354 341.257760 425.882134 342.242915 429.066084 343.228070 433.265581 344.213225 438.207473 345.198381 443.330801 346.183536 447.716669 347.168691 451.413629 348.153846 454.658748 349.139001 457.820875 350.124157 461.244675 351.109312 464.341096 352.094467 467.080496 353.079622 469.691352 354.064777 472.107026 355.049933 474.777352 356.035088 477.324297 357.020243 479.315003 358.005398 480.932482 358.990553 482.377837 359.975709 484.018053 360.960864 485.784402 361.946019 487.151727 362.931174 488.524676 363.916329 489.573137 364.901484 490.501004 365.886640 491.352455 366.871795 492.202876 367.856950 493.284763 368.842105 494.607812 369.827260 495.653343 370.812416 496.433986 371.797571 497.098768 372.782726 497.803446 373.767881 498.805321 374.753036 499.732827 375.738192 500.661982 376.723347 501.369824 377.708502 502.071930 378.693657 502.678608 379.678812 503.245822 380.663968 503.695942 381.649123 504.137589 382.634278 504.730261 383.619433 505.323869 384.604588 505.934581 385.589744 506.644708 386.574899 507.608653 387.560054 508.727001 388.545209 509.571004 389.530364 510.155430 390.515520 510.598597 391.500675 511.174768 392.485830 511.937915 393.470985 512.622803 394.456140 513.306815 395.441296 514.007192 396.426451 514.680269 397.411606 515.253342 398.396761 515.641730 399.381916 516.102597 400.367072 516.486637 401.352227 517.015534 402.337382 517.637324 403.322537 518.200947 404.307692 518.627204 405.292848 518.751423 406.278003 519.049987 407.263158 519.543807 408.248313 520.277615 409.233468 520.961252 410.218623 521.332135 411.203779 521.509346 412.188934 521.657758 413.174089 522.026347 414.159244 522.517763 415.144399 522.930205 416.129555 523.227709 417.114710 523.414557 418.099865 523.745574 419.085020 524.064288 420.070175 524.344720 421.055331 524.505702 422.040486 524.597675 423.025641 524.685586 424.010796 524.763476 424.995951 524.968786 425.981107 525.296108 426.966262 525.577247 427.951417 525.705919 428.936572 525.738049 429.921727 525.856032 430.906883 526.122877 431.892038 526.446610 432.877193 526.676154 433.862348 526.831316 434.847503 526.787928 435.832659 526.698551 436.817814 526.659130 437.802969 526.708002 438.788124 526.859491 439.773279 526.946499 440.758435 527.002068 441.743590 527.014187 442.728745 527.083241 443.713900 527.227003 444.699055 527.339360 445.684211 527.373290 446.669366 527.366381 447.654521 527.397523 448.639676 527.568519 449.624831 527.782840 450.609987 527.906206 451.595142 527.959804 452.580297 527.940178 453.565452 527.949918 454.550607 528.045959 455.535762 528.106239 456.520918 528.193565 457.506073 528.250056 458.491228 528.261653 459.476383 528.290307 460.461538 528.297854 461.446694 528.300645 462.431849 528.300317 463.417004 528.284137 464.402159 528.351173 465.387314 528.450126 466.372470 528.532366 467.357625 528.510705 468.342780 528.421358 469.327935 528.366807 470.313090 528.336752 471.298246 528.393448 472.283401 528.449671 473.268556 528.571417 474.253711 528.715775 475.238866 528.778893 476.224022 528.730648 477.209177 528.634674 478.194332 528.685085 479.179487 528.795888 480.164642 528.865799 481.149798 528.865431 482.134953 528.840583 483.120108 528.930402 484.105263 529.005006 485.090418 528.972109 486.075574 528.905339 487.060729 528.904383 488.045884 528.996151 489.031039 529.082887 490.016194 529.086584 491.001350 529.119346 491.986505 529.188354 492.971660 529.332242 493.956815 529.411384 494.941970 529.413304 495.927126 529.372081 496.912281 529.298413 497.897436 529.284711 498.882591 529.258245 499.867746 529.293381 500.852901 529.345304 501.838057 529.328732 502.823212 529.063972 503.808367 528.577133 503.808367 529.615385"/></g><g class="series serie-5 color-5"><path class="line reactive nofill" d="M12.215924 433.077263 L13.201080 435.665902 14.186235 438.832113 15.171390 443.174345 16.156545 448.247241 17.141700 453.361890 18.126856 458.135562 19.112011 462.519546 20.097166 466.221578 21.082321 469.262532 22.067476 471.698079 23.052632 474.008369 24.037787 475.184390 25.022942 476.659636 26.008097 477.856533 26.993252 478.364519 27.978408 479.241316 28.963563 480.104195 29.948718 480.946198 30.933873 481.871706 31.919028 482.769379 32.904184 483.806226 33.889339 485.191009 34.874494 486.380947 35.859649 487.633514 36.844804 489.080925 37.829960 489.818548 38.815115 491.203330 39.800270 492.678576 40.785425 493.986812 41.770580 495.107164 42.755735 496.241433 43.740891 497.417454 44.726046 498.503012 45.711201 499.609447 46.696356 500.688046 47.681511 501.947572 48.666667 502.824368 49.651822 503.749876 50.636977 504.605797 51.622132 505.127700 52.607287 505.684396 53.592443 506.338515 54.577598 507.020468 55.562753 506.999592 56.547908 507.451908 57.533063 507.542371 58.518219 507.556288 59.503374 507.695462 60.488529 507.535412 61.473684 507.368403 62.458839 507.458866 63.443995 507.361444 64.429150 507.152683 65.414305 507.097014 66.399460 507.103972 67.384615 507.124848 68.369771 506.992633 69.354926 506.804748 70.340081 506.658615 71.325236 506.498565 72.310391 506.067125 73.295547 505.399089 74.280702 504.682343 75.265857 503.979514 76.251012 503.040088 77.236167 502.072828 78.221323 501.056857 79.206478 500.305317 80.191633 499.414603 81.176788 498.621310 82.161943 498.294251 83.147099 498.148118 84.132254 498.586517 85.117409 499.178007 86.102564 500.221813 87.087719 501.133403 88.072874 502.692153 89.058030 504.264820 90.043185 506.025373 91.028340 507.973811 92.013495 509.421221 92.998650 511.091311 93.983806 513.102376 94.968961 514.459324 95.954116 515.621428 96.939271 516.686110 97.924426 517.521154 98.909582 518.063933 99.894737 518.592795 100.879892 518.982483 101.865047 519.191244 102.850202 519.365211 103.835358 519.434798 104.820513 519.532220 105.805668 519.573973 106.790823 519.462633 107.775978 519.420881 108.761134 519.379129 109.746289 519.309542 110.731444 519.149492 111.716599 519.031194 112.701754 518.878102 113.686910 518.787639 114.672065 518.676300 115.657220 518.411869 116.642375 518.182231 117.627530 518.077851 118.612686 518.036099 119.597841 517.848214 120.582996 517.646411 121.568151 517.451567 122.553306 517.298476 123.538462 516.985334 124.523617 516.769614 125.508772 516.574771 126.493927 516.428638 127.479082 516.171166 128.464238 515.802354 129.449393 515.649263 130.434548 515.391791 131.419703 515.259575 132.404858 514.981227 133.390013 514.695920 134.375169 514.361902 135.360324 514.313191 136.345479 514.320150 137.330634 514.236645 138.315789 514.139224 139.300945 514.104430 140.286100 514.180976 141.271255 514.334067 142.256410 514.243604 143.241565 514.403654 144.226721 514.577622 145.211876 514.876846 146.197031 515.050814 147.182186 515.196947 148.167341 515.370914 149.152497 515.684056 150.137652 515.837148 151.122807 515.997198 152.107962 516.101579 153.093117 516.150289 154.078273 516.317298 155.063428 516.470390 156.048583 516.553894 157.033738 516.553894 158.018893 516.734821 159.004049 516.706986 159.989204 516.769614 160.974359 516.894871 161.959514 516.762656 162.944669 516.825284 163.929825 516.880954 164.914980 516.887912 165.900135 516.908788 166.885290 516.922706 167.870445 516.839201 168.855601 516.922706 169.840756 516.964458 170.825911 516.922706 171.811066 516.950541 172.796221 516.950541 173.781377 516.936623 174.766532 516.936623 175.751687 516.999252 176.736842 516.867036 177.721997 516.908788 178.707152 516.943582 179.692308 516.873995 180.677463 516.790490 181.662618 516.776573 182.647773 516.706986 183.632928 516.623481 184.618084 516.463431 185.603239 516.317298 186.588394 515.955446 187.573549 515.607510 188.558704 515.308286 189.543860 514.932516 190.529015 514.591539 191.514170 514.194893 192.499325 513.749536 193.484480 513.318096 194.469636 512.810111 195.454791 512.267332 196.439946 511.675842 197.425101 511.063476 198.410256 510.339770 199.395412 509.623024 200.380567 508.822773 201.365722 508.015563 202.350877 507.124848 203.336032 506.261969 204.321188 505.239039 205.306343 504.299614 206.291498 503.221015 207.276653 501.954530 208.261808 500.674128 209.246964 499.518983 210.232119 498.315127 211.217274 496.846840 212.202429 495.531645 213.187584 494.237326 214.172740 492.922131 215.157895 491.551266 216.143050 490.236070 217.128205 489.039173 218.113360 487.730936 219.098516 486.387906 220.083671 485.197967 221.068826 483.680970 222.053981 482.275311 223.039136 480.897487 224.024291 479.380490 225.009447 477.835657 225.994602 476.179485 226.979757 474.523313 227.964912 472.679256 228.950067 470.626438 229.935223 468.538826 230.920378 466.179825 231.905533 463.744278 232.890688 460.960796 233.875843 457.954635 234.860999 454.802342 235.846154 451.302113 236.831309 447.572247 237.816464 443.550115 238.801619 439.242676 239.786775 434.775187 240.771930 429.945846 241.757085 424.956454 242.742240 419.751342 243.727395 414.330511 244.712551 408.805299 245.697706 403.328797 246.682861 397.775750 247.668016 392.194869 248.653171 386.669656 249.638327 381.387999 250.623482 376.238557 251.608637 371.416174 252.593792 367.213116 253.578947 363.344076 254.564103 359.843847 255.549258 356.935108 256.534413 354.207295 257.519568 352.070973 258.504723 350.456553 259.489879 349.245738 260.475034 348.368941 261.460189 347.826162 262.445344 347.471268 263.430499 347.422557 264.415655 347.387764 265.400810 347.046787 266.385965 346.712769 267.371120 346.455297 268.356275 345.808138 269.341430 344.799125 270.326586 343.323880 271.311741 341.319773 272.296896 338.390158 273.282051 334.889929 274.267206 330.735582 275.252362 325.634850 276.237517 319.525107 277.222672 312.462021 278.207827 304.271625 279.192982 295.127886 280.178138 285.225648 281.163293 274.383984 282.148448 262.672483 283.133603 250.216400 284.118758 236.960066 285.103914 223.049614 286.089069 208.540713 287.074224 193.523827 288.059379 177.929368 289.044534 162.063519 290.029690 146.016744 291.014845 129.879506 292.000000 114.138914 292.985155 98.467910 293.970310 83.158757 294.955466 68.691609 295.940621 55.678829 296.925776 43.584599 297.910931 33.014326 298.896086 24.009761 299.881242 17.238940 300.866397 12.646195 301.851552 10.384615 302.836707 10.551624 303.821862 13.766546 304.807018 19.584024 305.792173 28.101480 306.777328 39.151904 307.762483 53.215448 308.747638 69.603199 309.732794 87.960264 310.717949 107.945666 311.703104 129.517653 312.688259 152.140405 313.673414 175.222431 314.658570 198.610640 315.643725 222.381578 316.628880 245.846333 317.614035 268.726557 318.599190 290.813488 319.584345 312.322847 320.569501 332.788400 321.554656 352.119684 322.539811 370.094020 323.524966 386.954963 324.510121 402.577257 325.495277 416.724305 326.480432 429.611828 327.465587 441.288536 328.450742 451.761388 329.435897 461.169557 330.421053 469.499128 331.406208 476.944943 332.391363 483.520919 333.376518 489.338397 334.361673 494.550468 335.346829 498.962287 336.331984 502.998336 337.317139 506.373308 338.302294 509.268130 339.287449 511.940273 340.272605 514.201852 341.257760 516.066785 342.242915 517.729916 343.228070 519.191244 344.213225 520.422935 345.198381 521.515451 346.183536 522.287868 347.168691 523.164665 348.153846 523.930122 349.139001 524.528571 350.124157 525.057433 351.109312 525.572377 352.094467 525.920312 353.079622 526.282165 354.064777 526.497885 355.049933 526.734481 356.035088 527.040664 357.020243 527.221590 358.005398 527.360764 358.990553 527.611277 359.975709 527.743493 360.960864 527.875708 361.946019 528.035758 362.931174 528.077511 363.916329 528.049676 364.901484 528.140139 365.886640 528.223644 366.871795 528.334983 367.856950 528.418487 368.842105 528.536785 369.827260 528.536785 370.812416 528.536785 371.797571 528.543744 372.782726 528.648125 373.767881 528.641166 374.753036 528.515909 375.738192 528.564620 376.723347 528.780340 377.708502 528.620290 378.693657 528.571579 379.678812 528.571579 380.663968 528.655083 381.649123 528.724670 382.634278 528.689877 383.619433 528.731629 384.604588 528.801216 385.589744 528.801216 386.574899 528.801216 387.560054 528.801216 388.545209 528.808175 389.530364 528.808175 390.515520 528.759464 391.500675 528.849927 392.485830 528.905597 393.470985 528.905597 394.456140 528.870803 395.441296 528.773381 396.426451 528.842968 397.411606 528.849927 398.396761 528.891679 399.381916 529.009977 400.367072 528.975184 401.352227 528.919514 402.337382 528.905597 403.322537 528.954308 404.307692 528.996060 405.292848 528.975184 406.278003 528.926473 407.263158 529.030853 408.248313 529.003019 409.233468 528.975184 410.218623 528.996060 411.203779 529.107399 412.188934 529.114358 413.174089 529.037812 414.159244 529.065647 415.144399 529.170027 416.129555 529.197862 417.114710 529.030853 418.099865 529.190904 419.085020 529.218738 420.070175 529.218738 421.055331 529.156110 422.040486 529.121317 423.025641 529.197862 424.010796 529.135234 424.995951 529.197862 425.981107 529.149151 426.966262 529.142193 427.951417 529.093482 428.936572 529.093482 429.921727 529.170027 430.906883 529.086523 431.892038 529.009977 432.877193 529.009977 433.862348 529.044771 434.847503 529.051729 435.832659 529.044771 436.817814 529.003019 437.802969 529.016936 438.788124 529.058688 439.773279 529.044771 440.758435 528.982142 441.743590 528.996060 442.728745 528.829051 443.713900 528.884721 444.699055 529.037812 445.684211 528.947349 446.669366 528.933431 447.654521 528.975184 448.639676 529.051729 449.624831 529.009977 450.609987 529.058688 451.595142 528.961266 452.580297 528.933431 453.565452 529.086523 454.550607 529.107399 455.535762 529.058688 456.520918 529.030853 457.506073 528.982142 458.491228 529.009977 459.476383 529.023895 460.461538 529.044771 461.446694 529.051729 462.431849 529.030853 463.417004 529.051729 464.402159 529.058688 465.387314 529.058688 466.372470 529.058688 467.357625 529.079564 468.342780 529.051729 469.327935 529.009977 470.313090 529.009977 471.298246 529.023895 472.283401 529.003019 473.268556 529.072606 474.253711 529.023895 475.238866 529.030853 476.224022 529.030853 477.209177 528.996060 478.194332 528.926473 479.179487 528.975184 480.164642 528.996060 481.149798 528.954308 482.134953 528.912555 483.120108 528.877762 484.105263 528.919514 485.090418 528.870803 486.075574 528.822092 487.060729 528.975184 488.045884 528.947349 489.031039 528.884721 490.016194 528.870803 491.001350 528.968225 491.986505 528.912555 492.971660 528.808175 493.956815 528.863844 494.941970 528.919514 495.927126 528.877762 496.912281 528.919514 497.897436 528.919514 498.882591 528.940390 499.867746 529.003019 500.852901 528.849927 501.838057 528.738588 502.823212 528.745546 503.808367 528.856886"/></g><g class="series serie-6 color-6"><path class="line reactive" d="M356.035088 529.615385 L356.035088 529.254326 357.020243 529.218220 358.005398 529.127095 358.990553 529.015339 359.975709 528.882951 360.960864 528.747124 361.946019 528.585507 362.931174 528.355117 363.916329 528.097217 364.901484 527.823844 365.886640 527.536716 366.871795 527.225518 367.856950 526.802563 368.842105 526.269571 369.827260 525.595594 370.812416 524.842528 371.797571 524.082584 372.782726 523.277938 373.767881 522.382168 374.753036 521.264604 375.738192 519.878825 376.723347 518.357219 377.708502 516.744489 378.693657 515.045792 379.678812 513.046213 380.663968 510.713083 381.649123 508.077352 382.634278 505.297197 383.619433 502.511885 384.604588 499.501340 385.589744 495.863240 386.574899 491.327651 387.560054 486.130119 388.545209 480.911956 389.530364 475.771163 390.515520 470.436086 391.500675 464.621316 392.485830 458.495347 393.470985 452.451906 394.456140 446.594153 395.441296 440.323760 396.426451 433.384549 397.411606 425.804028 398.396761 419.055662 399.381916 412.950326 400.367072 407.357349 401.352227 401.602755 402.337382 394.118517 403.322537 386.388414 404.307692 379.672716 405.292848 375.331411 406.278003 372.644100 407.263158 370.211249 408.248313 367.006420 409.233468 363.464603 410.218623 360.601920 411.203779 359.425899 412.188934 358.953084 413.174089 358.134683 414.159244 357.789098 415.144399 358.088262 416.129555 360.450619 417.114710 363.760327 418.099865 367.284952 419.085020 370.512132 420.070175 374.611012 421.055331 379.696787 422.040486 384.669086 423.025641 388.878003 424.010796 393.356854 424.995951 399.111448 425.981107 405.256329 426.966262 411.597214 427.951417 416.789587 428.936572 422.091997 429.921727 427.617920 430.906883 433.396584 431.892038 439.056615 432.877193 444.506887 433.862348 449.771472 434.847503 454.408502 435.832659 458.767001 436.817814 462.748966 437.802969 466.718897 438.788124 470.448121 439.773279 474.098256 440.758435 477.303085 441.743590 480.011028 442.728745 482.514371 443.713900 484.725428 444.699055 487.039644 445.684211 489.077049 446.669366 491.021610 447.654521 493.053857 448.639676 494.848836 449.624831 496.385916 450.609987 497.453619 451.595142 498.669185 452.580297 499.814258 453.565452 501.050455 454.550607 502.231634 455.535762 503.369830 456.520918 504.643852 457.506073 505.518991 458.491228 506.113879 459.476383 506.507605 460.461538 507.085299 461.446694 507.920893 462.431849 508.656766 463.417004 509.274005 464.402159 509.629906 465.387314 510.021913 466.372470 510.451745 467.357625 510.869542 468.342780 511.280462 469.327935 511.557274 470.313090 511.823770 471.298246 512.047282 472.283401 512.389429 473.268556 512.891473 474.253711 513.353972 475.238866 513.773489 476.224022 514.022791 477.209177 514.210198 478.194332 514.562661 479.179487 515.007967 480.164642 515.508291 481.149798 515.795419 482.134953 515.855596 483.120108 515.989704 484.105263 516.275112 485.090418 516.801227 486.075574 517.188076 487.060729 517.428782 488.045884 517.636821 489.031039 517.930826 490.016194 518.266095 491.001350 518.606522 491.986505 518.945230 492.971660 519.321763 493.956815 519.722366 494.941970 520.102338 495.927126 520.463397 496.912281 520.836492 497.897436 521.281798 498.882591 521.759771 499.867746 522.143181 500.852901 522.450941 501.838057 522.633190 502.823212 522.805123 503.808367 523.119760 504.793522 523.432678 505.778677 523.800614 506.763833 524.106655 507.748988 524.354238 508.734143 524.637928 509.719298 524.926775 510.704453 525.239693 511.689609 525.494153 512.674764 525.642016 513.659919 525.793317 514.645074 525.958372 515.630229 526.169850 516.615385 526.391643 517.600540 526.544663 518.585695 526.687368 519.570850 526.831791 520.556005 526.962460 521.541161 527.115480 522.526316 527.263343 523.511471 527.414644 524.496626 527.550471 525.481781 527.675982 526.466937 527.816967 527.452092 527.942478 528.437247 528.016409 529.422402 528.054234 530.407557 528.067989 531.392713 528.105814 532.377868 528.191780 533.363023 528.337923 534.348178 528.544243 535.333333 528.740246 536.318489 528.843406 537.303644 528.886389 538.288799 528.903582 539.273954 528.955162 540.259109 529.037690 541.244265 529.094428 542.229420 529.123657 543.214575 529.147727 544.199730 529.197588 545.184885 529.257764 546.170040 529.299028 547.155196 529.343731 548.140351 529.378117 549.125506 529.422820 550.110661 529.493312 551.095816 529.596472 551.095816 529.615385"/></g><g class="series serie-7 color-7"><path class="line reactive nofill" d="M11.230769 497.568462 L12.215924 498.658846 13.201080 499.375385 14.186235 500.512500 15.171390 499.609038 16.156545 500.569615 17.141700 501.078462 18.126856 500.372308 19.112011 501.270577 20.097166 502.932115 21.082321 502.553077 22.067476 503.145000 23.052632 503.674615 24.037787 504.526154 25.022942 505.943654 26.008097 505.476346 26.993252 506.120192 27.978408 506.696538 28.963563 508.332115 29.948718 508.617692 30.933873 509.760000 31.919028 511.037308 32.904184 512.636538 33.889339 511.021731 34.874494 508.435962 35.859649 510.196154 36.844804 510.497308 37.829960 511.369615 38.815115 512.366538 39.800270 512.755962 40.785425 512.807885 41.770580 512.569038 42.755735 512.200385 43.740891 512.127692 44.726046 512.055000 45.711201 511.670769 46.696356 512.013462 47.681511 511.608462 48.666667 511.281346 49.651822 511.099615 50.636977 510.730962 51.622132 510.351923 52.607287 509.562692 53.592443 509.178462 54.577598 509.292692 55.562753 508.550192 56.547908 507.932308 57.533063 507.662308 58.518219 507.620769 59.503374 507.330000 60.488529 506.608269 61.473684 506.255192 62.458839 505.891731 63.443995 505.414038 64.429150 504.837692 65.414305 504.318462 66.399460 504.012115 67.384615 503.851154 68.369771 503.695385 69.354926 503.716154 70.340081 504.053654 71.325236 504.287308 72.310391 504.687115 73.295547 505.336154 74.280702 505.876154 75.265857 506.359038 76.251012 507.475385 77.236167 508.217885 78.221323 508.752692 79.206478 509.770385 80.191633 510.154615 81.176788 511.177500 82.161943 511.639615 83.147099 511.603269 84.132254 512.382115 85.117409 513.005192 86.102564 513.238846 87.087719 513.306346 88.072874 514.542115 89.058030 515.030192 90.043185 513.893077 91.028340 513.488077 92.013495 515.388462 92.998650 515.336538 93.983806 515.440385 94.968961 515.481923 95.954116 515.274231 96.939271 515.590962 97.924426 515.959615 98.909582 515.845385 99.894737 515.663654 100.879892 515.912885 101.865047 516.120577 102.850202 515.928462 103.835358 515.777885 104.820513 516.073846 105.805668 516.328269 106.790823 516.421731 107.775978 516.437308 108.761134 516.691731 109.746289 517.018846 110.731444 517.164231 111.716599 517.252500 112.701754 517.335577 113.686910 517.506923 114.672065 517.330385 115.657220 517.564038 116.642375 517.543269 117.627530 517.636731 118.612686 517.512115 119.597841 517.595192 120.582996 517.932692 121.568151 518.140385 122.553306 518.249423 123.538462 518.109231 124.523617 518.602500 125.508772 519.194423 126.493927 518.794615 127.479082 519.241154 128.464238 519.672115 129.449393 519.807115 130.434548 520.097885 131.419703 520.606731 132.404858 521.333654 133.390013 521.650385 134.375169 521.494615 135.360324 521.795769 136.345479 522.263077 137.330634 522.403269 138.315789 522.481154 139.300945 522.855000 140.286100 523.540385 141.271255 523.540385 142.256410 523.576731 143.241565 523.779231 144.226721 524.007692 145.211876 524.018077 146.197031 524.033654 147.182186 524.360769 148.167341 524.796923 149.152497 524.926731 150.137652 524.781346 151.122807 525.025385 152.107962 525.207115 153.093117 525.357692 154.078273 525.664038 155.063428 525.887308 156.048583 525.897692 157.033738 525.913269 158.018893 525.965192 159.004049 526.349423 159.989204 526.624615 160.974359 526.655769 161.959514 526.416923 162.944669 526.562308 163.929825 526.993269 164.914980 526.744038 165.900135 526.842692 166.885290 527.185385 167.870445 527.335962 168.855601 527.398269 169.840756 527.419038 170.825911 527.528077 171.811066 527.829231 172.796221 527.689038 173.781377 527.585192 174.766532 527.948654 175.751687 528.109615 176.736842 527.979808 177.721997 528.078462 178.707152 528.229038 179.692308 528.275769 180.677463 528.213462 181.662618 528.145962 182.647773 528.291346 183.632928 528.478269 184.618084 528.135577 185.603239 528.338077 186.588394 528.779423 187.573549 528.753462 188.558704 528.467885 189.543860 528.592500 190.529015 528.810577 191.514170 528.872885 192.499325 528.701538 193.484480 528.597692 194.469636 528.800192 195.454791 528.841731 196.439946 528.654808 197.425101 528.530192 198.410256 528.639231 199.395412 528.654808 200.380567 528.706731 201.365722 528.587308 202.350877 528.743077 203.336032 528.576923 204.321188 528.353654 205.306343 528.597692 206.291498 528.457500 207.276653 528.405577 208.261808 528.234231 209.246964 528.530192 210.232119 528.571731 211.217274 528.462692 212.202429 528.322500 213.187584 528.499038 214.172740 528.317308 215.157895 528.047308 216.143050 528.203077 217.128205 528.343269 218.113360 528.275769 219.098516 528.125192 220.083671 527.813654 221.068826 527.709808 222.053981 527.631923 223.039136 527.559231 224.024291 527.678654 225.009447 527.600769 225.994602 527.403462 226.979757 527.232115 227.964912 527.107500 228.950067 527.128269 229.935223 527.128269 230.920378 527.050385 231.905533 526.712885 232.890688 526.650577 233.875843 526.458462 234.860999 526.416923 235.846154 526.365000 236.831309 526.172885 237.816464 525.871731 238.801619 525.695192 239.786775 525.612115 240.771930 525.549808 241.757085 525.487500 242.742240 525.336923 243.727395 524.635962 244.712551 524.635962 245.697706 524.542500 246.682861 524.246538 247.668016 524.184231 248.653171 524.054423 249.638327 523.649423 250.623482 523.530000 251.608637 523.524808 252.593792 523.275577 253.578947 522.974423 254.564103 522.600577 255.549258 522.211154 256.534413 521.951538 257.519568 521.811346 258.504723 521.349231 259.489879 521.016923 260.475034 520.871538 261.460189 520.554808 262.445344 520.129038 263.430499 519.604615 264.415655 519.106154 265.400810 518.779038 266.385965 518.275385 267.371120 517.969038 268.356275 517.600385 269.341430 516.619038 270.326586 515.845385 271.311741 515.596154 272.296896 514.926346 273.282051 514.266923 274.267206 513.576346 275.252362 512.885769 276.237517 512.283462 277.222672 511.369615 278.207827 510.455769 279.192982 509.583462 280.178138 508.768269 281.163293 507.485769 282.148448 506.571923 283.133603 505.865769 284.118758 504.977885 285.103914 503.757692 286.089069 503.010000 287.074224 501.971538 288.059379 500.990192 289.044534 499.744038 290.029690 498.934038 291.014845 498.243462 292.000000 497.298462 292.985155 496.057500 293.970310 495.122885 294.955466 494.333654 295.940621 493.238077 296.925776 492.064615 297.910931 491.150769 298.896086 490.081154 299.881242 489.162115 300.866397 488.123654 301.851552 487.074808 302.836707 485.958462 303.821862 484.769423 304.807018 483.601154 305.792173 482.230385 306.777328 480.594808 307.762483 479.146154 308.747638 477.635192 309.732794 475.812692 310.717949 473.699423 311.703104 471.596538 312.688259 469.602692 313.673414 467.364808 314.658570 464.836154 315.643725 462.240000 316.628880 459.503654 317.614035 456.486923 318.599190 453.148269 319.584345 449.980962 320.569501 446.408654 321.554656 442.815577 322.539811 438.978462 323.524966 434.757115 324.510121 430.483846 325.495277 426.143077 326.480432 421.812692 327.465587 417.155192 328.450742 412.575577 329.435897 408.021923 330.421053 403.291731 331.406208 398.509615 332.391363 394.200000 333.376518 389.745000 334.361673 385.373077 335.346829 381.364615 336.331984 377.626154 337.317139 373.815000 338.302294 370.590577 339.287449 367.900962 340.272605 365.403462 341.257760 363.253846 342.242915 361.514423 343.228070 360.242308 344.213225 359.105192 345.198381 358.243269 346.183536 357.682500 347.168691 357.568269 348.153846 357.412500 349.139001 357.412500 350.124157 357.542308 351.109312 357.962885 352.094467 358.014808 353.079622 358.180962 354.064777 358.264038 355.049933 358.144615 356.035088 357.765577 357.020243 357.069808 358.005398 356.311731 358.990553 354.873462 359.975709 352.905577 360.960864 350.579423 361.946019 347.749615 362.931174 344.722500 363.916329 340.963269 364.901484 336.269423 365.886640 331.367885 366.871795 325.713462 367.856950 319.389231 368.842105 312.135577 369.827260 304.487308 370.812416 296.444423 371.797571 287.285192 372.782726 277.772885 373.767881 267.710192 374.753036 256.702500 375.738192 244.947115 376.723347 232.501154 377.708502 219.629423 378.693657 205.921731 379.678812 191.533846 380.663968 176.839615 381.649123 161.792308 382.634278 146.386731 383.619433 130.664423 384.604588 115.108269 385.589744 99.946731 386.574899 85.117500 387.560054 71.025577 388.545209 58.122692 389.530364 46.440000 390.515520 35.769808 391.500675 26.823462 392.485830 19.476346 393.470985 13.993269 394.456140 11.101154 395.441296 10.384615 396.426451 11.817692 397.411606 15.566538 398.396761 22.030962 399.381916 30.577500 400.367072 40.977692 401.352227 53.480769 402.337382 67.650577 403.322537 83.835000 404.307692 101.218846 405.292848 119.402308 406.278003 139.257692 407.263158 159.730962 408.248313 180.443077 409.233468 201.347308 410.218623 223.191346 411.203779 244.121538 412.188934 264.901154 413.174089 285.229038 414.159244 305.286923 415.144399 324.285577 416.129555 342.536538 417.114710 359.588077 418.099865 375.549231 419.085020 390.487500 420.070175 404.449615 421.055331 416.973462 422.040486 428.749615 423.025641 439.570385 424.010796 449.264423 424.995951 458.148462 425.981107 466.040769 426.966262 473.019231 427.951417 479.260385 428.936572 484.779808 429.921727 489.541154 430.906883 493.809231 431.892038 497.578846 432.877193 501.021346 433.862348 504.069231 434.847503 506.618654 435.832659 508.804615 436.817814 510.850385 437.802969 512.818269 438.788124 514.573269 439.773279 516.219231 440.758435 517.439423 441.743590 518.659615 442.728745 519.635769 443.713900 520.466538 444.699055 521.255769 445.684211 522.128077 446.669366 522.720000 447.654521 523.488462 448.639676 524.142692 449.624831 524.734615 450.609987 525.139615 451.595142 525.461538 452.580297 525.856154 453.565452 526.183269 454.550607 526.624615 455.535762 526.785577 456.520918 527.040000 457.506073 527.382692 458.491228 527.502115 459.476383 527.668269 460.461538 527.850000 461.446694 527.979808 462.431849 528.296538 463.417004 528.286154 464.402159 528.322500 465.387314 528.301731 466.372470 528.410769 467.357625 528.576923 468.342780 528.722308 469.327935 528.987115 470.313090 529.044231 471.298246 529.106538 472.283401 529.033846 473.268556 529.065000 474.253711 529.132500 475.238866 529.174038 476.224022 529.179231 477.209177 529.350577 478.194332 529.402500 479.179487 529.407692 480.164642 529.345385 481.149798 529.272692 482.134953 529.464808 484.105263 529.438846 485.090418 529.563462 487.060729 529.605000 488.045884 529.563462 494.941970 529.589423 499.867746 529.470000 502.823212 529.584231 503.808367 529.563462"/></g><g class="series serie-8 color-8"><path class="line reactive" d="M429.921727 529.615385 L429.921727 526.739931 430.906883 525.956865 431.892038 525.543075 432.877193 525.022542 433.862348 524.484165 434.847503 523.753550 435.832659 523.285680 436.817814 522.468738 437.802969 521.874197 438.788124 521.150377 439.773279 520.252887 440.758435 519.097552 441.743590 518.073015 442.728745 517.089813 443.713900 515.916555 444.699055 514.109767 445.684211 513.031805 446.669366 511.492524 447.654521 509.955770 448.639676 507.848645 449.624831 505.429598 450.609987 502.769780 451.595142 501.319875 452.580297 498.047893 453.565452 496.063784 454.550607 492.530748 455.535762 489.735836 456.520918 487.210948 457.506073 484.294577 458.491228 481.140575 459.476383 477.530657 460.461538 475.287032 461.446694 471.511255 462.431849 468.154139 463.417004 465.404590 464.402159 462.683888 465.387314 458.965919 466.372470 456.755401 467.357625 452.239586 468.342780 450.419817 469.327935 447.366103 470.313090 445.321484 471.298246 443.041398 472.283401 440.260766 473.268556 438.826198 474.253711 437.078878 475.238866 435.392707 476.224022 433.549454 477.209177 431.985184 478.194332 431.290181 479.179487 430.600752 480.164642 430.326831 481.149798 430.473156 482.134953 430.783848 483.120108 431.029750 484.105263 431.240547 485.090418 431.998721 486.075574 433.059146 487.060729 433.534263 488.045884 434.330313 489.031039 435.887117 490.016194 438.214811 491.001350 439.132676 491.986505 441.046497 492.971660 442.293420 493.956815 444.557581 494.941970 446.443364 495.927126 449.008797 496.912281 452.159404 497.897436 454.778021 498.882591 457.243042 499.867746 459.429268 500.852901 462.190590 501.838057 465.292885 502.823212 468.101098 503.808367 471.940124 504.793522 473.397531 505.778677 477.934689 506.763833 479.317166 507.748988 481.816689 508.734143 484.416120 509.719298 485.345651 510.704453 488.549129 511.689609 490.215871 512.674764 491.431917 513.659919 493.897937 514.645074 495.196632 515.630229 496.714621 516.615385 497.914723 517.600540 498.486803 518.585695 501.148983 519.570850 502.740450 520.556005 502.938594 521.541161 503.802603 522.526316 504.374038 523.511471 506.880220 524.496626 506.481517 525.481781 508.247805 526.466937 508.896281 527.452092 510.287375 528.437247 511.094841 529.422402 510.856754 530.407557 512.425349 531.392713 513.060874 532.377868 513.837605 533.363023 514.886978 534.348178 515.138284 535.333333 515.571397 536.318489 515.263062 537.303644 515.869049 538.288799 515.587671 539.273954 516.101160 540.259109 516.430971 541.244265 516.703833 542.229420 517.239341 543.214575 517.501141 544.199730 517.376734 545.184885 518.505181 546.170040 518.476032 547.155196 519.399350 548.140351 518.922400 549.125506 519.989447 550.110661 519.820016 551.095816 520.608543 552.080972 520.480177 553.066127 521.189577 554.051282 521.557383 555.036437 520.961805 556.021592 522.139943 557.006748 522.589936 557.991903 523.053595 558.977058 523.113416 559.962213 523.350870 560.947368 523.514634 561.932524 523.542845 562.917679 523.708499 562.917679 529.615385"/></g><g class="series serie-9 color-9"><path class="line reactive nofill" d="M109.746289 518.535114 L110.731444 518.387092 111.716599 518.143163 112.701754 517.925973 113.686910 517.833748 114.672065 517.718468 115.657220 517.640080 116.642375 517.543705 117.627530 517.474533 118.612686 517.474533 119.597841 517.331589 120.582996 517.280403 121.568151 517.202015 122.553306 517.096414 123.538462 516.989899 124.523617 516.805448 125.508772 516.616853 126.493927 516.551834 127.479082 516.339718 128.464238 516.026155 129.449393 515.975431 130.434548 515.800206 131.419703 515.657257 132.404858 515.643425 133.390013 515.574720 134.375169 515.842165 135.360324 515.897043 136.345479 516.289457 137.330634 516.496957 138.315789 517.022174 139.300945 517.451018 140.286100 518.060158 141.271255 518.631951 142.256410 519.222186 143.241565 519.858530 144.226721 520.564045 145.211876 521.094335 146.197031 521.780940 147.182186 522.343973 148.167341 522.920371 149.152497 523.413308 150.137652 523.994322 151.122807 524.211511 152.107962 524.852468 153.093117 525.069195 154.078273 525.294683 155.063428 525.557983 156.048583 525.843878 157.033738 525.990975 158.018893 526.069827 159.004049 526.341427 159.989204 526.396761 160.974359 526.600115 161.959514 526.761047 162.944669 526.761047 163.929825 526.779953 164.914980 526.945956 165.900135 526.963940 166.885290 527.069998 167.870445 527.125332 168.855601 527.240613 169.840756 527.268280 170.825911 527.342520 171.811066 527.300558 172.796221 527.498840 173.781377 527.494229 174.766532 527.568469 175.751687 527.632565 176.736842 527.789807 177.721997 527.770901 178.707152 527.876959 179.692308 527.992240 180.677463 528.102908 181.662618 528.149482 182.647773 528.301190 183.632928 528.250928 184.618084 528.444138 185.603239 528.463044 186.588394 528.513306 187.573549 528.554807 188.558704 528.711588 189.543860 528.693143 190.529015 528.803812 191.514170 528.799662 192.499325 528.923703 193.484480 528.905720 194.469636 528.937537 195.454791 529.002555 196.439946 529.112769 197.425101 529.085096 198.410256 529.108615 199.395412 529.076334 200.380567 529.071262 201.365722 529.108615 202.350877 529.122635 203.336032 529.094779 204.321188 529.002555 205.306343 528.988721 206.291498 528.965204 207.276653 528.979038 208.261808 528.984110 209.246964 528.937537 210.232119 528.854997 211.217274 528.850385 212.202429 528.683920 213.187584 528.711588 214.172740 528.623975 215.157895 528.568640 216.143050 528.380042 217.128205 528.384192 218.113360 528.245856 219.098516 528.273523 220.083671 528.130576 221.068826 528.116742 222.053981 527.923071 223.039136 527.863126 224.024291 527.679138 225.009447 527.720178 225.994602 527.540802 226.979757 527.503912 227.964912 527.254907 228.950067 527.167294 229.935223 526.982385 230.920378 526.807620 231.905533 526.678045 232.890688 526.558154 233.875843 526.387539 234.860999 526.221535 235.846154 526.069827 236.831309 525.866934 237.816464 525.700930 238.801619 525.460686 239.786775 525.326961 240.771930 525.142513 241.757085 524.935008 242.742240 524.704909 243.727395 524.552740 244.712551 524.253013 245.697706 523.980952 246.682861 523.842151 247.668016 523.492164 248.653171 523.215029 249.638327 522.970633 250.623482 522.795408 251.608637 522.454180 252.593792 522.255896 253.578947 521.970002 254.564103 521.610788 255.549258 521.421731 256.534413 521.098484 257.519568 520.909422 258.504723 520.540529 259.489879 520.296594 260.475034 519.844235 261.460189 519.568025 262.445344 519.208349 263.430499 518.922455 264.415655 518.489001 265.400810 518.253831 266.385965 517.852196 267.371120 517.575519 268.356275 517.290087 269.341430 516.842801 270.326586 516.579499 271.311741 516.146507 272.296896 515.786374 273.282051 515.297586 274.267206 515.025524 275.252362 514.514139 276.237517 514.228246 277.222672 513.730236 278.207827 513.384392 279.192982 512.780324 280.178138 512.369929 281.163293 511.885752 282.148448 511.341629 283.133603 510.810882 284.118758 510.248773 285.103914 509.602741 286.089069 509.128247 287.074224 508.445328 288.059379 507.859709 289.044534 507.191542 290.029690 506.462973 291.014845 505.872275 292.000000 505.019662 292.985155 504.355649 293.970310 503.502117 294.955466 502.746340 295.940621 501.833319 296.925776 501.150396 297.910931 500.164060 298.896086 499.357102 299.881242 498.370304 300.866397 497.484948 301.851552 496.506910 302.836707 495.547782 303.821862 494.492274 304.807018 493.685311 305.792173 492.620125 306.777328 491.669756 307.762483 490.623475 308.747638 489.700765 309.732794 488.607909 310.717949 487.626189 311.703104 486.445256 312.688259 485.403118 313.673414 484.337937 314.658570 483.360817 315.643725 482.138849 316.628880 481.142362 317.614035 479.971118 318.599190 478.911005 319.584345 477.679327 320.569501 476.499323 321.554656 475.382977 322.539811 474.184488 323.524966 472.902612 324.510121 471.726294 325.495277 470.389483 326.480432 469.010302 327.465587 467.682265 328.450742 466.253238 329.435897 464.717250 330.421053 463.200162 331.406208 461.632344 332.391363 459.991212 333.376518 458.326558 334.361673 456.550788 335.346829 454.743658 336.331984 452.871519 337.317139 451.008571 338.302294 448.961192 339.287449 447.038325 340.272605 444.820327 341.257760 442.620813 342.242915 440.259404 343.228070 437.958381 344.213225 435.376142 345.198381 432.904967 346.183536 430.326831 347.168691 427.767646 348.153846 425.120815 349.139001 422.391427 350.124157 419.629327 351.109312 416.839085 352.094467 414.040067 353.079622 411.287158 354.064777 408.507092 355.049933 405.758804 356.035088 402.932112 357.020243 400.345252 358.005398 397.656467 358.990553 395.037260 359.975709 392.349410 360.960864 389.919306 361.946019 387.272008 362.931174 384.828508 363.916329 382.343106 364.901484 379.982163 365.886640 377.560783 366.871795 375.222946 367.856950 372.830175 368.842105 370.404225 369.827260 367.895717 370.812416 365.294994 371.797571 362.611246 372.782726 359.839956 373.767881 357.017885 374.753036 354.292650 375.738192 351.258473 376.723347 348.275025 377.708502 345.199362 378.693657 342.105681 379.678812 338.965010 380.663968 335.815512 381.649123 332.523588 382.634278 329.276838 383.619433 326.044835 384.604588 322.830848 385.589744 319.644017 386.574899 316.508435 387.560054 313.234944 388.545209 310.186904 389.530364 307.189177 390.515520 304.454700 391.500675 301.720742 392.485830 299.138452 393.470985 296.698638 394.456140 294.425810 395.441296 292.128940 396.426451 290.238837 397.411606 288.357456 398.396761 286.706146 399.381916 285.180335 400.367072 283.828777 401.352227 282.556090 402.337382 281.555896 403.322537 280.744338 404.307692 279.964610 405.292848 279.337431 406.278003 278.784554 407.263158 278.291181 408.248313 277.853106 409.233468 277.327437 410.218623 276.967298 411.203779 276.386279 412.188934 275.847213 413.174089 275.160167 414.159244 274.367042 415.144399 273.389019 416.129555 272.185910 417.114710 270.747225 418.099865 269.095967 419.085020 266.891833 420.070175 264.572844 421.055331 261.630415 422.040486 258.559840 423.025641 254.893448 424.010796 250.844798 424.995951 246.275567 425.981107 241.258552 426.966262 235.914213 427.951417 229.808475 428.936572 223.288702 429.921727 216.145956 430.906883 208.694215 431.892038 200.444313 432.877193 192.093888 433.862348 183.198375 434.847503 173.934467 435.832659 164.412762 436.817814 154.411079 437.802969 144.695285 438.788124 134.564417 439.773279 124.350162 440.758435 113.984187 441.743590 104.023938 442.728745 93.833204 443.713900 84.329931 444.699055 74.996862 445.684211 66.074192 446.669366 57.584925 447.654521 49.321679 448.639676 41.809552 449.624831 34.948540 450.609987 28.888910 451.595142 23.623390 452.580297 19.260710 453.565452 15.617838 454.550607 12.957196 455.535762 11.117769 456.520918 10.384615 457.506073 10.495263 458.491228 11.763381 459.476383 14.169963 460.461538 17.462769 461.446694 22.032519 462.431849 28.215727 463.417004 35.026892 464.402159 43.248704 465.387314 52.493660 466.372470 62.891983 467.357625 73.530035 468.342780 85.860883 469.327935 97.711183 470.313090 110.618429 471.298246 123.266942 472.283401 136.441229 473.268556 149.771700 474.253711 163.130417 475.238866 176.890292 476.224022 190.281669 477.209177 204.105617 478.194332 217.796746 479.179487 231.173429 480.164642 244.209756 481.149798 257.272823 482.134953 269.871127 483.120108 282.381317 484.105263 294.684023 485.090418 306.723427 486.075574 318.684894 487.060729 330.153456 488.045884 341.321331 489.031039 351.899879 490.016194 362.177844 491.001350 371.962800 491.986505 381.674440 492.971660 390.629406 493.956815 399.381508 494.941970 407.621285 495.927126 415.161035 496.912281 422.548235 497.897436 429.270871 498.882591 435.828029 499.867746 442.076192 500.852901 447.674694 501.838057 452.838756 502.823212 457.713294 503.808367 462.199500 504.793522 466.414148 505.778677 470.490473 506.763833 474.101515 507.748988 477.665983 508.734143 480.851858 509.719298 483.945985 510.704453 486.698874 511.689609 489.327262 512.674764 491.840832 513.659919 494.196696 514.645074 496.280961 515.630229 498.309892 516.615385 499.988835 517.600540 502.003933 518.585695 503.571283 519.570850 505.157538 520.556005 506.578253 521.541161 507.933948 522.526316 509.201567 523.511471 510.308256 524.496626 511.295054 525.481781 512.300762 526.466937 513.254818 527.452092 514.080223 528.437247 514.933299 529.422402 515.528607 530.407557 516.330497 531.392713 516.989899 532.377868 517.534022 533.363023 518.165754 534.348178 518.732931 535.333333 519.143793 536.318489 519.586468 537.303644 520.047587 538.288799 520.397579 539.273954 520.771550 540.259109 521.255266 541.244265 521.495046 542.229420 521.726068 543.214575 522.141078 544.199730 522.403918 545.184885 522.670907 546.170040 523.007986 547.155196 523.220102 548.140351 523.519366 549.125506 523.722261 550.110661 523.952820 551.095816 524.156177 552.080972 524.340623 553.066127 524.474349 554.051282 524.713670 555.036437 524.875063 556.021592 525.008788 557.006748 525.165569 557.991903 525.313589 558.977058 525.419185 559.962213 525.488815 560.947368 525.654818 561.932524 525.788543 562.917679 525.908435 563.902834 526.037549 564.887989 526.106255 565.873144 526.203091 566.858300 526.309148 567.843455 526.401834 568.828610 526.502819 569.813765 526.618099 570.798920 526.581671 571.784076 526.632394 572.769231 526.858343"/></g><g class="series serie-10 color-10"><path class="line reactive nofill" d="M65.414305 529.615385 L65.414305 10.384615"/></g><g class="series serie-11 color-11"><path class="line reactive nofill" d="M114.672065 529.615385 L114.672065 10.384615"/></g><g class="series serie-12 color-12"><path class="line reactive nofill" d="M196.439946 529.615385 L196.439946 10.384615"/></g><g class="series serie-13 color-13"><path class="line reactive nofill" d="M268.356275 529.615385 L268.356275 10.384615"/></g><g class="series serie-14 color-14"><path class="line reactive nofill" d="M346.183536 529.615385 L346.183536 10.384615"/></g></g><g class="titles"/><g class="plot overlay" transform="translate(196, 20)"><g class="series serie-0 color-0"/><g class="series serie-1 color-1"/><g class="series serie-2 color-2"/><g class="series serie-3 color-3"/><g class="series serie-4 color-4"/><g class="series serie-5 color-5"/><g class="series serie-6 color-6"/><g class="series serie-7 color-7"/><g class="series serie-8 color-8"/><g class="series serie-9 color-9"/><g class="series serie-10 color-10"/><g class="series serie-11 color-11"/><g class="series serie-12 color-12"/><g class="series serie-13 color-13"/><g class="series serie-14 color-14"/></g><g class="plot text-overlay" transform="translate(196, 20)"><g class="series serie-0 color-0"/><g class="series serie-1 color-1"/><g class="series serie-2 color-2"/><g class="series serie-3 color-3"/><g class="series serie-4 color-4"/><g class="series serie-5 color-5"/><g class="series serie-6 color-6"/><g class="series serie-7 color-7"/><g class="series serie-8 color-8"/><g class="series serie-9 color-9"/><g class="series serie-10 color-10"/><g class="series serie-11 color-11"/><g class="series serie-12 color-12"/><g class="series serie-13 color-13"/><g class="series serie-14 color-14"/></g><g class="plot tooltip-overlay" transform="translate(196, 20)"><g class="tooltip" style="opacity: 0" transform="translate(0 0)"><rect class="tooltip-box" height="0" rx="0" ry="0" width="0"/><g class="text"/></g></g><g class="legends" transform="translate(10, 30)"><g class="legend reactive activate-serie" id="activate-serie-0"><rect class="color-0 reactive" height="12" width="12" x="0.0" y="1.0"/><text x="17.0" y="11.2">Alexa Fluor 405</text></g><g class="legend reactive activate-serie" id="activate-serie-2"><rect class="color-2 reactive" height="12" width="12" x="0.0" y="22.0"/><text x="17.0" y="32.2">FITC</text></g><g class="legend reactive activate-serie" id="activate-serie-4"><rect class="color-4 reactive" height="12" width="12" x="0.0" y="43.0"/><text x="17.0" y="53.2">eFluor 615</text></g><g class="legend reactive activate-serie" id="activate-serie-6"><rect class="color-6 reactive" height="12" width="12" x="0.0" y="64.0"/><text x="17.0" y="74.2">eFluor 710</text></g><g class="legend reactive activate-serie" id="activate-serie-8"><rect class="color-8 reactive" height="12" width="12" x="0.0" y="85.0"/><text x="17.0" y="95.2">Alexa Fluor 750</text></g><g class="legend reactive activate-serie" id="activate-serie-10"><rect class="color-10 reactive" height="12" width="12" x="0.0" y="106.0"/><text x="17.0" y="116.2">Laser: 355</text></g><g class="legend reactive activate-serie" id="activate-serie-11"><rect class="color-11 reactive" height="12" width="12" x="0.0" y="127.0"/><text x="17.0" y="137.2">Laser: 405</text></g><g class="legend reactive activate-serie" id="activate-serie-12"><rect class="color-12 reactive" height="12" width="12" x="0.0" y="148.0"/><text x="17.0" y="158.2">Laser: 488</text></g><g class="legend reactive activate-serie" id="activate-serie-13"><rect class="color-13 reactive" height="12" width="12" x="0.0" y="169.0"/><text x="17.0" y="179.2">Laser: 561</text></g><g class="legend reactive activate-serie" id="activate-serie-14"><rect class="color-14 reactive" height="12" width="12" x="0.0" y="190.0"/><text x="17.0" y="200.2">Laser: 640</text></g></g><g class="legends" transform="translate(790, 30)"/></g></svg>